<?xml version="1.0" encoding="UTF-8" standalone="no"?>
<!DOCTYPE svg PUBLIC "-//W3C//DTD SVG 1.1//EN" "http://www.w3.org/Graphics/SVG/1.1/DTD/svg11.dtd">
<svg width="100%" height="100%" viewBox="0 0 512 512" version="1.1" xmlns="http://www.w3.org/2000/svg" xmlns:xlink="http://www.w3.org/1999/xlink" xml:space="preserve" xmlns:serif="http://www.serif.com/" style="fill-rule:evenodd;clip-rule:evenodd;stroke-linejoin:round;stroke-miterlimit:2;">
    <g transform="matrix(1,0,0,1.00577,0,-2.96498)">
        <g id="Layer1">
            <rect x="0.27" y="2.124" width="511.853" height="511.499" style="fill:white;"/>
        </g>
    </g>
    <path d="M168,296C163.584,296 160,299.584 160,304C160,308.416 163.584,312 168,312L344,312C348.416,312 352,308.416 352,304C352,299.584 348.416,296 344,296L168,296Z" style="fill-rule:nonzero;"/>
    <path d="M80,295.536L80,280C80,279.312 80.168,278.664 80.2,277.984C70.664,281.664 62.008,286.944 54.424,293.52L65.968,304.632C70.216,301.12 74.896,298.056 80,295.536Z" style="fill-rule:nonzero;"/>
    <path d="M122.432,256L120,256C106.768,256 96,266.768 96,280L96,328C102.288,328 108.104,330.448 112.472,334.608C123.912,327.56 136.112,322.072 148.832,318.304C145.84,314.296 144,309.376 144,304C144,297.784 146.44,292.16 150.328,287.888C139.528,278.4 130.176,267.672 122.432,256Z" style="fill-rule:nonzero;"/>
    <path d="M88,208L101.088,208C97.776,195.104 96,181.704 96,168C96,148.28 99.76,129.456 106.312,112L88,112C83.584,112 80,115.584 80,120L80,200C80,204.416 83.584,208 88,208Z" style="fill-rule:nonzero;"/>
    <path d="M80,334.248L80,314.064C60.632,327.472 51.384,351.96 58.2,375.536C59.192,378.976 60.504,382.256 62.096,385.392C66.224,378.608 70.984,372.176 76.184,366.04L74.528,362.728C71.664,357 71.208,350.496 73.24,344.4C74.576,340.408 76.952,336.984 80,334.248Z" style="fill-rule:nonzero;"/>
    <path d="M40.624,350.592L25.064,346.744C23.56,356.6 23.68,366.672 25.616,376.624L41.072,372.16C39.808,364.888 39.712,357.64 40.624,350.592Z" style="fill-rule:nonzero;"/>
    <path d="M435.816,366.04C441.016,372.176 445.776,378.608 449.904,385.392C451.496,382.256 452.808,378.976 453.8,375.536C460.616,351.952 451.368,327.472 432,314.064L432,334.248C435.048,336.992 437.424,340.408 438.76,344.408C440.792,350.504 440.336,357.008 437.472,362.736L435.816,366.04Z" style="fill-rule:nonzero;"/>
    <path d="M410.912,208L424,208C428.416,208 432,204.416 432,200L432,120C432,115.584 428.416,112 424,112L405.688,112C412.24,129.456 416,148.28 416,168C416,181.704 414.224,195.104 410.912,208Z" style="fill-rule:nonzero;"/>
    <path d="M166.08,280.192C166.72,280.144 167.344,280 168,280L344,280C344.656,280 345.28,280.144 345.92,280.192C380.304,252.64 400,211.96 400,168C400,88.6 335.4,24 256,24C176.6,24 112,88.6 112,168C112,211.96 131.696,252.64 166.08,280.192ZM250.056,40.136C285.44,38.432 318.912,51.08 344.424,75.456C369.944,99.84 384,132.712 384,168C384,198.096 373.272,227.36 353.792,250.408C346.488,259.048 335.512,264 323.696,264L188.32,264C176.288,264 164.912,258.568 157.12,249.104C136.976,224.624 126.688,193.704 128.136,162.024C131.136,96.64 184.688,43.096 250.056,40.136Z" style="fill-rule:nonzero;"/>
    <path d="M30.064,392C33.984,402.08 39.664,411.28 46.904,419.224C48.744,413.312 50.968,407.536 53.52,401.888C50.312,397.416 47.608,392.632 45.504,387.536L30.064,392Z" style="fill-rule:nonzero;"/>
    <path d="M431.8,277.984C431.832,278.664 432,279.312 432,280L432,295.536C437.104,298.056 441.784,301.12 446.024,304.624L457.568,293.512C449.984,286.944 441.328,281.664 431.8,277.984Z" style="fill-rule:nonzero;"/>
    <path d="M399.52,334.608C403.904,330.448 409.712,328 416,328L416,280C416,266.768 405.232,256 392,256L389.568,256C381.816,267.672 372.472,278.4 361.664,287.888C365.56,292.16 368,297.784 368,304C368,309.376 366.16,314.288 363.168,318.296C375.896,322.072 388.088,327.552 399.52,334.608Z" style="fill-rule:nonzero;"/>
    <path d="M188.32,248L323.696,248C330.8,248 337.312,245.112 341.568,240.08C358.616,219.912 368,194.32 368,168C368,137.128 355.704,108.368 333.368,87.024C311.048,65.688 281.752,54.68 250.776,56.12C193.6,58.712 146.744,105.56 144.12,162.76C142.856,190.472 151.856,217.528 169.48,238.928C174.216,244.696 181.088,248 188.32,248ZM251.504,72.104C253.008,72.032 254.496,72 255.992,72L255.992,88C254.736,88 253.496,88.032 252.224,88.088C220.936,89.512 193.184,109.472 181.512,138.944L166.64,133.056C180.624,97.736 213.928,73.808 251.504,72.104ZM160.08,166.744C160.064,165.656 160.056,164.576 160.104,163.496C160.304,159.152 160.808,154.792 161.6,150.544L177.336,153.464C176.68,156.992 176.256,160.624 176.096,164.232C176.064,164.984 176.08,165.736 176.088,166.504L176.096,168L160.096,168L160.08,166.744Z" style="fill-rule:nonzero;"/>
    <path d="M83.992,381.664C65.888,405.32 56,434.136 56,464L56,488L128,488L128,465.848C125.8,463.872 123.912,461.496 122.528,458.736L83.992,381.664Z" style="fill-rule:nonzero;"/>
    <path d="M304,360L208,360C203.584,360 200,363.584 200,368L200,448C200,452.416 203.584,456 208,456L304,456C308.416,456 312,452.416 312,448L312,368C312,363.584 308.416,360 304,360ZM232,392L216,392L216,376L232,376L232,392ZM264,392L248,392L248,376L264,376L264,392ZM296,392L280,392L280,376L296,376L296,392Z" style="fill-rule:nonzero;"/>
    <path d="M34.952,317.488C32.504,321.92 30.544,326.528 28.912,331.216L44.408,335.048C46.904,328.256 50.44,321.896 54.864,316.136L43.344,305.056C40.248,308.936 37.4,313.048 34.952,317.488Z" style="fill-rule:nonzero;"/>
    <path d="M357.296,469.488C351.552,466.616 347.272,461.68 345.24,455.6C343.208,449.52 343.664,443.008 346.528,437.272L391.072,348.192C369.672,335.008 345.272,328 320,328L192,328C166.736,328 142.336,335.008 120.928,348.184L165.472,437.272C168.336,443.008 168.792,449.512 166.76,455.6C164.728,461.688 160.448,466.616 154.712,469.48C151.392,471.128 147.696,472 144.008,472L144,472L144,488L368,488L368,472L367.992,472C364.304,472 360.608,471.128 357.296,469.488ZM328,448C328,461.232 317.232,472 304,472L208,472C194.768,472 184,461.232 184,448L184,368C184,354.768 194.768,344 208,344L304,344C317.232,344 328,354.768 328,368L328,448Z" style="fill-rule:nonzero;"/>
    <path d="M389.472,458.736C388.088,461.496 386.2,463.872 384,465.848L384,488L456,488L456,464C456,434.136 446.112,405.32 428.008,381.664L389.472,458.736Z" style="fill-rule:nonzero;"/>
    <path d="M423.584,349.48C422.904,347.44 421.472,345.792 419.56,344.84C418.472,344.288 417.232,344 416.008,344C412.96,344 410.208,345.696 408.84,348.44L360.848,444.424C359.896,446.328 359.744,448.496 360.424,450.528C361.104,452.568 362.528,454.208 364.448,455.168C368.264,457.072 373.248,455.4 375.16,451.584L423.16,355.584C424.112,353.672 424.256,351.504 423.584,349.48Z" style="fill-rule:nonzero;"/>
    <path d="M486.936,346.744L471.376,350.592C472.288,357.64 472.192,364.888 470.936,372.152L486.392,376.616C488.32,366.664 488.448,356.6 486.936,346.744Z" style="fill-rule:nonzero;"/>
    <path d="M483.088,331.216C481.456,326.528 479.488,321.92 477.048,317.488C474.6,313.056 471.752,308.944 468.664,305.056L457.144,316.136C461.568,321.888 465.104,328.256 467.6,335.048L483.088,331.216Z" style="fill-rule:nonzero;"/>
    <path d="M147.56,455.16C149.472,454.208 150.896,452.568 151.576,450.528C152.256,448.496 152.104,446.336 151.152,444.424L103.152,348.424C101.792,345.696 99.04,344 95.992,344C94.768,344 93.528,344.288 92.416,344.84C90.528,345.784 89.096,347.432 88.416,349.472C87.744,351.504 87.896,353.664 88.848,355.576L136.848,451.576C138.76,455.4 143.704,457.08 147.56,455.16Z" style="fill-rule:nonzero;"/>
    <path d="M458.48,401.88C461.032,407.528 463.256,413.304 465.096,419.216C472.336,411.272 478.024,402.072 481.936,391.992L466.488,387.528C464.392,392.632 461.688,397.408 458.48,401.88Z" style="fill-rule:nonzero;"/>
</svg>
